<svg xmlns="http://www.w3.org/2000/svg" viewBox="0 0 416.61 536.05"><defs><style>.cls-1{fill:#fff;}</style></defs><g id="Layer_2" data-name="Layer 2"><g id="Layer_1-2" data-name="Layer 1"><path class="cls-1" d="M414.47,177.8a221.35,221.35,0,0,0-5.42-25.44C381.61,53.44,285.83-11.14,184.07,1.6,130,8.37,85.16,33.3,49.54,74.73-9.6,143.54-17.13,246.31,34.19,321.12,80.47,388.58,129.27,454.31,177,520.77a35.47,35.47,0,0,0,14.2,11.59c17.54,8.08,35.59,2.74,48.18-14.41Q306.69,426.23,374,334.48c27.86-37.88,42.24-80.19,42.62-126.66C416.37,197.4,416,187.54,414.47,177.8ZM208.34,303.85c-51.33-.19-92.85-41.84-92.67-93,.18-51.52,41.84-92.68,93.65-92.54,50.83.13,92.12,42.31,91.81,93.79C300.84,262.53,258.83,304,208.34,303.85Z"/></g></g></svg>