<svg xmlns="http://www.w3.org/2000/svg" viewBox="0 0 458.11 458.91"><defs><style>.cls-1{fill:#fff;}</style></defs><g id="Layer_2" data-name="Layer 2"><g id="Layer_1-2" data-name="Layer 1"><path class="cls-1" d="M343.62,458.88c-30.08-.37-58.4-8.12-85-21.71C151.45,382.45,70.74,301.44,18.23,193c-14-29-20.65-60-17.43-92.41,3.77-38,21.57-67.94,53.48-88.67,19.82-12.88,41.54-16,64-6.12a48.54,48.54,0,0,1,20.26,16.5c17.46,24.51,35,49,52.16,73.69,8.32,12,13.83,25,12,40.17C201.55,146,197,154.29,191.3,162c-5.93,8-13.21,14.78-20.1,21.91-2.21,2.28-2.84,3.79-.74,6.72a410,410,0,0,0,96.37,96.71c3.32,2.37,5.17,2.23,8.08-.72,8.74-8.88,17.23-18,28.24-24.4,15.23-8.83,30.57-9,46.34-2,7.59,3.37,14.41,8,21.15,12.77,20,14.24,39.57,29.3,60.28,42.5,30,19.14,32.56,52.87,20.26,77.92-18.54,37.77-49.33,59-91.06,64.4A105.75,105.75,0,0,1,343.62,458.88Z"/></g></g></svg>